# xmcd
#
# Track frame offsets: 
#        150
#        15849
#        27152
#        43419
#        55955
#        70098
#        84273
#        100166
#        115001
#        126745
#        145589
#        162106
#
# Disc length: 2364 seconds
#
# Revision: 2
# Processed by: cddbd v1.5.2PL0 Copyright (c) Steve Scherf et al.
# Submitted via: ExactAudioCopy v0.99pb3
#
DISCID=96093a0c
DTITLE=Sweet Apple - Love and Desperation
DYEAR=2010
DGENRE=Rock
TTITLE0=Do You Remember
TTITLE1=I've Got a Feeling (that Won't Change)
TTITLE2=Flying Up a Mountain
TTITLE3=It's Over Now
TTITLE4=Can't See You
TTITLE5=Hold Me, I'm Dying
TTITLE6=Blindfold
TTITLE7=Somebody Else's Problem
TTITLE8=Dead Moon
TTITLE9=Crawling Over Bodies
TTITLE10=Never Came
TTITLE11=Goodnight
EXTD=
EXTT0=
EXTT1=
EXTT2=
EXTT3=
EXTT4=
EXTT5=
EXTT6=
EXTT7=
EXTT8=
EXTT9=
EXTT10=
EXTT11=
PLAYORDER=
